<svg width="134" height="24" viewBox="0 0 134 24" fill="none" xmlns="http://www.w3.org/2000/svg">
<path d="M33.9293 18H32.0893V6.8H33.9293V11.504H35.8013L39.1933 6.8H41.3053L37.3533 12.192L41.5453 18H39.3213L35.8173 13.136H33.9293V18ZM44.9413 18.048L41.7573 9.808H43.5973L45.8853 16.032L48.1093 9.808H49.9493L46.2373 19.28C45.7253 20.608 45.3733 21.2 44.1733 21.2H42.3173V19.68H43.5333C44.2053 19.68 44.3653 19.52 44.6213 18.848L44.9413 18.048ZM52.7113 18H50.9833V9.808H58.3593V18H56.6313V11.328H52.7113V18ZM61.7254 18H60.2214V9.808H61.9014V15.488L66.3174 9.808H67.8374V18H66.1574V12.304L61.7254 18ZM73.5648 18H71.8368V11.328H69.0528V9.808H76.3488V11.328H73.5648V18ZM81.2702 18H77.5102V9.808H79.2382V12.352H81.2702C83.3342 12.352 84.5342 13.408 84.5342 15.184C84.5342 16.944 83.3342 18 81.2702 18ZM79.2382 13.728V16.624H80.9822C82.1502 16.624 82.7742 16.096 82.7742 15.184C82.7742 14.224 82.1502 13.728 80.9822 13.728H79.2382ZM94.5717 10.416C96.6997 10.416 98.2677 11.84 98.2677 14.176C98.2677 16.432 96.6837 18.096 94.1237 18.096C91.6117 18.096 90.0437 16.608 90.0437 13.376C90.0437 9.168 91.1317 7.504 94.7317 7.056L97.5797 6.704V8.256L95.1317 8.56C92.6197 8.88 91.8997 9.488 91.6277 11.664C92.2037 10.912 93.2117 10.416 94.5717 10.416ZM94.1557 16.704C95.5477 16.704 96.5077 15.68 96.5077 14.256C96.5077 12.848 95.5637 11.824 94.1877 11.824C92.7477 11.824 91.8037 12.832 91.8037 14.128C91.8037 15.728 92.7797 16.704 94.1557 16.704ZM101.322 18H99.8183V9.808H101.498V15.488L105.914 9.808H107.434V18H105.754V12.304L101.322 18ZM109.051 18H108.491V16.48H108.779C109.627 16.48 109.963 15.952 109.963 13.744V9.808H116.475V18H114.747V11.328H111.595V13.808C111.595 17.056 110.763 18 109.051 18ZM122.214 18.096C119.638 18.096 118.022 16.432 118.022 13.92C118.022 11.392 119.638 9.712 122.054 9.712C124.422 9.712 126.006 11.216 126.054 13.616C126.054 13.824 126.038 14.048 126.006 14.272H119.83V14.384C119.878 15.776 120.758 16.688 122.118 16.688C123.174 16.688 123.942 16.16 124.182 15.248H125.91C125.622 16.864 124.246 18.096 122.214 18.096ZM119.894 13.008H124.262C124.118 11.792 123.27 11.104 122.07 11.104C120.966 11.104 120.022 11.84 119.894 13.008ZM130.997 18H129.269V11.328H126.485V9.808H133.781V11.328H130.997V18Z" fill="white"/>
<path d="M11.0049 20.9997C11.0049 20.1712 10.3333 19.4997 9.50488 19.4997C8.67646 19.4997 8.00488 20.1712 8.00488 20.9997H3.00488C2.4526 20.9997 2.00488 20.5519 2.00488 19.9997V3.99963C2.00488 3.44735 2.4526 2.99963 3.00488 2.99963H8.00488C8.00488 3.82806 8.67646 4.49963 9.50488 4.49963C10.3333 4.49963 11.0049 3.82806 11.0049 2.99963H21.0049C21.5572 2.99963 22.0049 3.44735 22.0049 3.99963V9.49963C20.6242 9.49963 19.5049 10.619 19.5049 11.9997C19.5049 13.3804 20.6242 14.4997 22.0049 14.4997V19.9997C22.0049 20.5519 21.5572 20.9997 21.0049 20.9997H11.0049ZM9.50488 10.4997C10.3333 10.4997 11.0049 9.82806 11.0049 8.99963C11.0049 8.17121 10.3333 7.49963 9.50488 7.49963C8.67646 7.49963 8.00488 8.17121 8.00488 8.99963C8.00488 9.82806 8.67646 10.4997 9.50488 10.4997ZM9.50488 16.4997C10.3333 16.4997 11.0049 15.8281 11.0049 14.9997C11.0049 14.1712 10.3333 13.4997 9.50488 13.4997C8.67646 13.4997 8.00488 14.1712 8.00488 14.9997C8.00488 15.8281 8.67646 16.4997 9.50488 16.4997Z" fill="white"/>
</svg>
